<svg width="100" height="100" viewBox="0 0 100 100" xmlns="http://www.w3.org/2000/svg">
    <defs/>
    <path id="path1" fill="none" stroke="#666666" stroke-width="0.590414" stroke-linecap="round" d="M 51.93938 47.254524 L 51.93938 48.317265 C 51.93938 48.610733 51.701477 48.848637 51.40801 48.848637 L 47.6884 48.848637 C 47.394936 48.848637 47.15703 48.610733 47.15703 48.317265 L 47.15703 47.254524"/>
    <path id="polyline1" fill="none" stroke="#666666" stroke-width="0.590413" stroke-linecap="round" d="M 50.877426 45.70707 L 49.548996 44.37864 L 48.220566 45.70707"/>
    <path id="line1" fill="none" stroke="#666666" stroke-width="0.590414" stroke-linecap="round" d="M 49.548996 44.37864 L 49.548996 47.566875"/>
    <path id="path2" fill="#999999" stroke="none" d="M 40.819057 51.71049 Q 40.6382 51.71049 40.498787 51.770782 Q 40.35937 51.831078 40.26517 51.9426 Q 40.17097 52.054127 40.122746 52.210876 Q 40.074516 52.367622 40.074516 52.559032 Q 40.074516 52.750443 40.126507 52.90945 Q 40.178493 53.06846 40.275715 53.182995 Q 40.372925 53.297546 40.513847 53.36085 Q 40.654766 53.42415 40.831104 53.42415 Q 40.954693 53.42415 41.056427 53.391743 Q 41.15816 53.359333 41.240303 53.300556 Q 41.322445 53.241768 41.387253 53.16114 Q 41.45206 53.080513 41.501797 52.982544 L 41.73692 53.100098 Q 41.67965 53.21917 41.59524 53.321655 Q 41.51084 53.424145 41.39705 53.4995 Q 41.28326 53.574867 41.139324 53.617813 Q 40.995388 53.660774 40.817543 53.660774 Q 40.559814 53.660774 40.366146 53.578632 Q 40.172474 53.496494 40.042103 53.349545 Q 39.91173 53.20259 39.846924 53.000626 Q 39.782116 52.798676 39.782116 52.559032 Q 39.782116 52.31035 39.850697 52.109894 Q 39.919273 51.90944 40.05115 51.768513 Q 40.183025 51.627598 40.375946 51.551487 Q 40.568863 51.475372 40.816036 51.475372 Q 41.15515 51.475372 41.382736 51.60801 Q 41.610317 51.740643 41.717327 52.00138 L 41.44453 52.091812 Q 41.41439 52.01645 41.36314 51.947872 Q 41.311897 51.87929 41.235027 51.82655 Q 41.158157 51.7738 41.05492 51.742153 Q 40.95168 51.7105 40.81905 51.7105 Z M 42.062477 53.630634 L 42.062477 51.393993 L 42.333763 51.393993 L 42.333763 53.630634 Z M 42.74673 51.65322 L 42.74673 51.393993 L 43.01802 51.393993 L 43.01802 51.65322 Z M 42.74673 53.630634 L 42.74673 51.99987 L 43.01802 51.99987 L 43.01802 53.630634 Z M 43.640484 52.807713 Q 43.640484 52.947887 43.66083 53.065445 Q 43.681183 53.182995 43.729412 53.268154 Q 43.777645 53.35331 43.85677 53.400032 Q 43.935898 53.446754 44.05194 53.446754 Q 44.196632 53.446754 44.293846 53.368378 Q 44.391056 53.290005 44.413666 53.12722 L 44.68797 53.145313 Q 44.67441 53.24629 44.629192 53.33974 Q 44.583965 53.43318 44.50636 53.50402 Q 44.428738 53.57486 44.31721 53.617805 Q 44.20568 53.66077 44.059483 53.66077 Q 43.86807 53.66077 43.733932 53.59596 Q 43.599796 53.53115 43.51615 53.41736 Q 43.432495 53.303566 43.394817 53.149082 Q 43.35714 52.994595 43.35714 52.813744 Q 43.35714 52.649452 43.38427 52.523605 Q 43.41139 52.39776 43.460384 52.30356 Q 43.509354 52.209362 43.57568 52.145306 Q 43.64199 52.081253 43.719612 52.042824 Q 43.797234 52.004395 43.88314 51.987053 Q 43.96905 51.96972 44.056465 51.96972 Q 44.19362 51.96972 44.300632 52.007393 Q 44.407635 52.04507 44.48526 52.110634 Q 44.562874 52.176193 44.611107 52.265125 Q 44.65934 52.354042 44.67892 52.45653 L 44.4001 52.477634 Q 44.378998 52.34199 44.29309 52.26211 Q 44.207188 52.18223 44.048927 52.18223 Q 43.932877 52.18223 43.85526 52.22066 Q 43.777637 52.259094 43.72941 52.33671 Q 43.68118 52.41433 43.660824 52.531895 Q 43.64048 52.649445 43.64048 52.8077 Z M 45.999207 53.630634 L 45.447582 52.88609 L 45.24863 53.050373 L 45.24863 53.630634 L 44.97735 53.630634 L 44.97735 51.393993 L 45.24863 51.393993 L 45.24863 52.791138 L 45.96454 51.99987 L 46.28255 51.99987 L 45.620907 52.700706 L 46.31722 53.630634 Z M 48.00525 53.61857 Q 47.94346 53.635155 47.879402 53.644943 Q 47.815346 53.654743 47.730946 53.654743 Q 47.405396 53.654743 47.405396 53.28549 L 47.405396 52.197308 L 47.217 52.197308 L 47.217 51.99987 L 47.41594 51.99987 L 47.495823 51.63513 L 47.67668 51.63513 L 47.67668 51.99987 L 47.97812 51.99987 L 47.97812 52.197308 L 47.67668 52.197308 L 47.67668 53.22671 Q 47.67668 53.344273 47.715115 53.391743 Q 47.753544 53.439217 47.8485 53.439217 Q 47.887684 53.439217 47.92462 53.433216 Q 47.96154 53.42722 48.00525 53.418148 Z M 49.61491 52.813747 Q 49.61491 53.24178 49.426514 53.45128 Q 49.238117 53.660778 48.87941 53.660778 Q 48.7091 53.660778 48.57496 53.609543 Q 48.440815 53.558292 48.34813 53.45279 Q 48.255444 53.347286 48.206455 53.188282 Q 48.157475 53.02927 48.157475 52.813747 Q 48.157475 51.96973 48.888454 51.96973 Q 49.078358 51.96973 49.216267 52.022484 Q 49.354168 52.075233 49.442333 52.180737 Q 49.530506 52.286232 49.572712 52.444492 Q 49.614914 52.602745 49.614914 52.81375 Z M 49.33005 52.813747 Q 49.33005 52.623848 49.300663 52.500256 Q 49.271282 52.376667 49.214752 52.30281 Q 49.158237 52.228966 49.076847 52.199577 Q 48.99546 52.17019 48.892967 52.17019 Q 48.788975 52.17019 48.70533 52.201088 Q 48.62168 52.231987 48.562904 52.306595 Q 48.504124 52.381187 48.47322 52.504787 Q 48.44232 52.62837 48.44232 52.81375 Q 48.44232 53.003654 48.475483 53.128 Q 48.50864 53.252342 48.56666 53.32619 Q 48.62469 53.40004 48.703815 53.430183 Q 48.782944 53.46032 48.876385 53.46032 Q 48.98038 53.46032 49.064793 53.43093 Q 49.14919 53.401543 49.207966 53.327694 Q 49.266743 53.25384 49.29839 53.12874 Q 49.330044 53.003654 49.330044 52.813747 Z M 51.703842 53.660778 Q 51.529015 53.660778 51.37227 53.614048 Q 51.215523 53.56733 51.09721 53.468605 Q 50.978897 53.36989 50.90957 53.21842 Q 50.840237 53.066948 50.840237 52.858963 L 50.840237 51.507027 L 51.128117 51.507027 L 51.128117 52.834843 Q 51.128117 52.996113 51.171062 53.108395 Q 51.214012 53.22068 51.29088 53.291515 Q 51.367756 53.362354 51.472504 53.394756 Q 51.57725 53.42716 51.702343 53.42716 Q 51.82593 53.42716 51.935955 53.393997 Q 52.04597 53.36084 52.128872 53.288498 Q 52.21177 53.21615 52.25924 53.099346 Q 52.306725 52.982544 52.306725 52.815247 L 52.306725 51.50702 L 52.593086 51.50702 L 52.593086 52.831833 Q 52.593086 53.04434 52.523006 53.20033 Q 52.452915 53.356323 52.332348 53.458813 Q 52.211773 53.561295 52.04975 53.611034 Q 51.887733 53.660774 51.703857 53.660774 Z M 54.418262 52.807716 Q 54.418262 52.9931 54.388123 53.149845 Q 54.35798 53.306595 54.2879 53.41963 Q 54.217815 53.532665 54.102512 53.59672 Q 53.987217 53.660774 53.818405 53.660774 Q 53.643578 53.660774 53.512455 53.594456 Q 53.38133 53.528137 53.312 53.377422 L 53.3045 53.377422 Q 53.306 53.380417 53.3067 53.404537 Q 53.30744 53.428658 53.3082 53.464832 Q 53.308945 53.50101 53.3097 53.545464 Q 53.310444 53.589928 53.310444 53.633633 L 53.310444 54.271164 L 53.03916 54.271164 L 53.03916 52.332943 Q 53.03916 52.274162 53.038414 52.219906 Q 53.03767 52.165646 53.036213 52.121185 Q 53.034718 52.07673 53.033215 52.04508 Q 53.03171 52.01343 53.030212 51.999866 L 53.29246 51.999866 Q 53.29396 52.004368 53.29626 52.031517 Q 53.29846 52.05865 53.30076 52.097076 Q 53.30296 52.135506 53.305264 52.179222 Q 53.307457 52.222923 53.307457 52.262108 L 53.313457 52.262108 Q 53.35114 52.183735 53.39937 52.128716 Q 53.44761 52.07371 53.509396 52.038292 Q 53.571186 52.002884 53.647297 51.987053 Q 53.72342 51.971222 53.818363 51.971222 Q 53.98717 51.971222 54.102467 52.03151 Q 54.217762 52.0918 54.287853 52.20107 Q 54.35793 52.310337 54.388077 52.464825 Q 54.418217 52.61931 54.418217 52.807705 Z M 54.133408 52.813717 Q 54.133408 52.663 54.115314 52.545437 Q 54.097225 52.42787 54.052776 52.346493 Q 54.008305 52.265114 53.93446 52.222904 Q 53.860615 52.180706 53.74908 52.180706 Q 53.658646 52.180706 53.578766 52.206326 Q 53.498886 52.231945 53.439354 52.304283 Q 53.379814 52.376637 53.345154 52.503986 Q 53.310486 52.631344 53.310486 52.834812 Q 53.310486 53.008137 53.33912 53.127956 Q 53.367752 53.247776 53.42277 53.321632 Q 53.477787 53.395477 53.55917 53.42788 Q 53.64056 53.46029 53.74606 53.46029 Q 53.859104 53.46029 53.933704 53.416588 Q 54.008305 53.37287 54.052776 53.289978 Q 54.09724 53.207085 54.115314 53.08726 Q 54.1334 52.967438 54.1334 52.813713 Z M 54.755867 53.630604 L 54.755867 51.393963 L 55.02716 51.393963 L 55.02716 53.630604 Z M 56.82069 52.81372 Q 56.82069 53.24175 56.632294 53.45125 Q 56.443893 53.660748 56.08519 53.660748 Q 55.914886 53.660748 55.780743 53.609512 Q 55.646606 53.558273 55.553913 53.452763 Q 55.461224 53.347263 55.41224 53.188255 Q 55.363255 53.029247 55.363255 52.81373 Q 55.363255 51.969704 56.094234 51.969704 Q 56.284138 51.969704 56.422047 52.022457 Q 56.559956 52.075214 56.648125 52.180714 Q 56.73629 52.286213 56.778492 52.444466 Q 56.820694 52.602726 56.820694 52.81373 Z M 56.535835 52.81372 Q 56.535835 52.623817 56.506443 52.50023 Q 56.477055 52.376644 56.420536 52.302788 Q 56.364017 52.228935 56.282635 52.199547 Q 56.20125 52.17016 56.098755 52.17016 Q 55.99476 52.17016 55.91111 52.201057 Q 55.827465 52.231956 55.76869 52.306564 Q 55.709908 52.381165 55.67901 52.504757 Q 55.648106 52.62834 55.648106 52.81373 Q 55.648106 53.003628 55.681263 53.127968 Q 55.714428 53.25231 55.772457 53.32616 Q 55.830486 53.40001 55.90961 53.430153 Q 55.988743 53.460297 56.08218 53.460297 Q 56.18618 53.460297 56.270576 53.43091 Q 56.354973 53.401524 56.41376 53.327663 Q 56.47254 53.253815 56.50419 53.128716 Q 56.53585 53.003624 56.53585 52.81372 Z M 57.574284 53.660748 Q 57.32861 53.660748 57.20502 53.531136 Q 57.081436 53.40152 57.081436 53.175438 Q 57.081436 53.014168 57.14246 52.91093 Q 57.203506 52.807686 57.302227 52.74891 Q 57.40095 52.690125 57.527554 52.667526 Q 57.654156 52.644917 57.78527 52.641903 L 58.15152 52.635902 L 58.15152 52.546986 Q 58.15152 52.446003 58.13042 52.375168 Q 58.109318 52.30433 58.06561 52.26062 Q 58.021896 52.216908 57.95634 52.19657 Q 57.890774 52.176224 57.80185 52.176224 Q 57.723473 52.176224 57.66018 52.187527 Q 57.596878 52.19882 57.550156 52.22821 Q 57.503437 52.257603 57.474796 52.30809 Q 57.446156 52.35857 57.437107 52.435444 L 57.153767 52.409832 Q 57.16883 52.313366 57.21104 52.23274 Q 57.25323 52.152103 57.330856 52.093323 Q 57.408478 52.034546 57.52528 52.00213 Q 57.642086 51.969734 57.807865 51.969734 Q 58.115334 51.969734 58.270573 52.11065 Q 58.42581 52.251575 58.42581 52.518345 L 58.42581 53.220684 Q 58.42581 53.34126 58.457462 53.402298 Q 58.489113 53.463337 58.578037 53.463337 Q 58.600647 53.463337 58.62325 53.460335 Q 58.64586 53.457237 58.666958 53.452843 L 58.666958 53.621635 Q 58.615715 53.63369 58.565224 53.63972 Q 58.514732 53.64572 58.457462 53.64572 Q 58.38059 53.64572 58.32558 53.62537 Q 58.270573 53.605022 58.235916 53.56358 Q 58.20124 53.522137 58.183163 53.461094 Q 58.165073 53.400055 58.160553 53.318665 L 58.15155 53.318665 Q 58.10784 53.397038 58.055843 53.460335 Q 58.00384 53.52364 57.934517 53.568108 Q 57.865185 53.612568 57.77701 53.636673 Q 57.688843 53.660793 57.574303 53.660793 Z M 57.63607 53.45728 Q 57.76569 53.45728 57.862904 53.40981 Q 57.96011 53.36233 58.024166 53.288483 Q 58.08822 53.214626 58.119873 53.12721 Q 58.151535 53.0398 58.151535 52.95992 L 58.151535 52.82578 L 57.85463 52.83178 Q 57.75515 52.83328 57.665474 52.84609 Q 57.575794 52.85891 57.507977 52.89658 Q 57.440147 52.934258 57.40021 53.002083 Q 57.36027 53.069904 57.36027 53.179928 Q 57.36027 53.312557 57.431866 53.384903 Q 57.503452 53.457245 57.63608 53.457245 Z M 59.90436 53.368362 Q 59.829006 53.525105 59.704662 53.592926 Q 59.58032 53.660755 59.396442 53.660755 Q 59.08747 53.660755 58.942036 53.452763 Q 58.7966 53.244774 58.7966 52.822765 Q 58.7966 51.969704 59.396442 51.969704 Q 59.581833 51.969704 59.705414 52.037525 Q 59.829002 52.10536 59.90436 52.253056 L 59.907364 52.253056 Q 59.907364 52.237984 59.90662 52.205574 Q 59.905872 52.173164 59.90512 52.137753 Q 59.904377 52.102333 59.904377 52.070683 Q 59.904377 52.039036 59.904377 52.025463 L 59.904377 51.393963 L 60.17567 51.393963 L 60.17567 53.294506 Q 60.17567 53.353287 60.17642 53.40754 Q 60.17716 53.4618 60.178616 53.507004 Q 60.180115 53.55223 60.18172 53.58463 Q 60.183212 53.61704 60.18482 53.630604 L 59.92547 53.630604 Q 59.922466 53.61553 59.92017 53.58764 Q 59.91797 53.559757 59.91567 53.52359 Q 59.913467 53.487423 59.91187 53.44748 Q 59.91037 53.40754 59.91037 53.368347 Z M 59.081448 52.813744 Q 59.081448 52.982548 59.10255 53.10312 Q 59.123657 53.223694 59.17038 53.301315 Q 59.21711 53.378933 59.28945 53.415108 Q 59.361794 53.451275 59.465786 53.451275 Q 59.572796 53.451275 59.654938 53.41662 Q 59.73708 53.381943 59.792088 53.30433 Q 59.847095 53.22671 59.875736 53.101616 Q 59.90436 52.976517 59.90436 52.79566 Q 59.90436 52.62233 59.875736 52.502514 Q 59.847095 52.382694 59.791336 52.30884 Q 59.73557 52.234993 59.654938 52.202587 Q 59.574306 52.170177 59.4688 52.170177 Q 59.369328 52.170177 59.29698 52.204845 Q 59.224636 52.239502 59.17641 52.316376 Q 59.128178 52.393246 59.10482 52.516075 Q 59.081455 52.638916 59.081455 52.813744 Z"/>
    <path id="rect1" fill="none" stroke="#666666" stroke-width="0.5" stroke-linecap="round" stroke-linejoin="round" stroke-dasharray="1 2" d="M 16.194187 21.061573 L 84.22099 21.061573 C 85.27342 21.061573 86.28275 21.479649 87.02693 22.22383 C 87.77112 22.968012 88.18919 23.977339 88.18919 25.02977 L 88.18919 71.86279 C 88.18919 72.91522 87.77112 73.92455 87.02695 74.66874 C 86.28275 75.41292 85.27342 75.83099 84.22099 75.83099 L 16.194187 75.83099 C 15.141755 75.83099 14.132429 75.41292 13.3882475 74.66873 C 12.644065 73.92455 12.225989 72.91522 12.22599 71.86279 L 12.22599 25.02977 C 12.22599 22.838196 14.002612 21.061573 16.194187 21.061573 Z"/>
</svg>
