<svg width="72" height="72" viewBox="0 0 72 72" xmlns="http://www.w3.org/2000/svg">
    <defs/>
    <path fill="#9b9b9a" stroke="#9b9b9a" stroke-miterlimit="10" stroke-width="0.9" stroke-linecap="round" stroke-linejoin="round" d="M 37.9219 35.1094 L 40.3905 41.6746 L 45.75 47.2247 L 10.25 47.125 L 14.0417 42.25 L 15.6667 34.0781 L 20.4306 21.1476 L 23.1528 23.8698 L 25.875 25.9115 L 28.5972 31.3559 L 32 31.3559 L 37.4444 35.4392"/>
    <path fill="#92d3f5" stroke="#92d3f5" stroke-miterlimit="10" stroke-width="1.9" stroke-linecap="round" stroke-linejoin="round" d="M 37 52 C 34.3015 49.2273 32.3292 48.821 31 49 C 27.9951 49.4046 26.6617 53.0176 23 53 C 22.6139 52.9981 21.6964 52.9932 20.6667 52.5456 C 18.0565 51.411 17.6107 48.5751 14 49 C 9.9469 49.477 9.091 53.5912 6 53 L 35.6875 53"/>
    <path fill="#b1cc33" stroke="#b1cc33" stroke-miterlimit="10" stroke-width="1.9" stroke-linecap="round" d="M 66.28 39.6464 C 66.28 38.0604 64.6505 36.7721 62.6404 36.7721 C 62.4725 36.7735 62.3048 36.7841 62.1379 36.8039 C 61.2867 35.1493 59.4384 34 57.2891 34 C 54.3335 34 51.9377 36.1685 51.9377 38.8432 C 51.9382 39.02 51.9493 39.1967 51.9709 39.372 C 50.6498 39.8031 49.72 40.8296 49.72 42.0284 C 49.72 43.6145 51.3495 44.9027 53.3596 44.9027 C 54.1236 44.9093 54.876 44.7101 55.5421 44.3247 C 56.402 45.0318 57.778 45.4924 59.3339 45.4924 C 61.9408 45.4924 64.054 44.2055 64.054 42.6181 C 64.0536 42.5132 64.0439 42.4085 64.025 42.3053 C 65.348 41.8736 66.28 40.8465 66.28 39.6464 Z"/>
    <path fill="#b1cc33" stroke="none" d="M 52.898 42.9002 C 52.898 41.3142 51.2685 40.0259 49.2584 40.0259 C 49.0905 40.0273 48.9228 40.0379 48.7559 40.0577 C 47.9047 38.4031 46.0564 37.2538 43.9071 37.2538 C 40.9515 37.2538 38.5557 39.4223 38.5557 42.097 C 38.5562 42.2738 38.5673 42.4505 38.5889 42.6258 C 37.2678 43.0569 36.338 44.0834 36.338 45.2822 C 36.338 46.8683 37.9675 48.1565 39.9776 48.1565 C 40.7416 48.1631 41.494 47.9639 42.1601 47.5785 C 43.02 48.2856 44.396 48.7462 45.9519 48.7462 C 48.5588 48.7462 50.672 47.4593 50.672 45.8719 C 50.6716 45.767 50.6619 45.6623 50.643 45.5591 C 51.966 45.1274 52.898 44.1003 52.898 42.9002 Z"/>
    <path fill="none" stroke="#000000" stroke-width="2" stroke-linecap="round" stroke-linejoin="round" d="M 45 56.4349 L 45 52"/>
    <path fill="none" stroke="#000000" stroke-width="2" stroke-linecap="round" stroke-linejoin="round" d="M 58 53.4349 L 58 49"/>
    <path fill="none" stroke="#000000" stroke-miterlimit="10" stroke-width="2" stroke-linecap="round" stroke-linejoin="round" d="M 28.6757 31.1351 L 25.973 25.7297 L 23.2703 23.7027 L 20.5676 21 L 15.8378 33.8378 L 14.4865 41.9459 L 11.7838 46"/>
    <path fill="none" stroke="#000000" stroke-miterlimit="10" stroke-width="2" stroke-linecap="round" stroke-linejoin="round" d="M 24.6216 25.0541 L 25.2973 31.1351 L 32.0541 31.1351 L 37.4595 35.1892"/>
    <path fill="none" stroke="#000000" stroke-miterlimit="10" stroke-width="2" stroke-linecap="round" stroke-linejoin="round" d="M 32.0541 31.1351 L 34.0811 35.1892 L 34.7568 39.2432 L 32.0541 43.2999 L 28 46"/>
    <path fill="none" stroke="#000000" stroke-miterlimit="10" stroke-width="2" stroke-linecap="round" d="M 55.5421 44.3247 C 56.402 45.0318 57.778 45.4924 59.3339 45.4924 C 61.9408 45.4924 64.054 44.2054 64.054 42.6181 C 64.0536 42.5132 64.0439 42.4085 64.025 42.3053 C 65.348 41.8736 66.28 40.8465 66.28 39.6464 C 66.28 38.0604 64.6505 36.7721 62.6404 36.7721 C 62.4725 36.7735 62.3048 36.7841 62.1379 36.8039 C 61.2867 35.1493 59.4384 34 57.2891 34 C 54.7805 34 52.6752 35.5621 52.0957 37.6701"/>
    <path fill="none" stroke="#000000" stroke-miterlimit="10" stroke-width="1.9" stroke-linecap="round" d="M 52.898 42.9002 C 52.898 41.3142 51.2685 40.0259 49.2584 40.0259 C 49.0905 40.0273 48.9228 40.0379 48.7559 40.0577 C 47.9047 38.4031 46.0564 37.2538 43.9071 37.2538 C 40.9515 37.2538 38.5557 39.4223 38.5557 42.097 C 38.5562 42.2738 38.5673 42.4505 38.5889 42.6258 C 37.2678 43.0569 36.338 44.0834 36.338 45.2822 C 36.338 46.8683 37.9675 48.1565 39.9776 48.1565 C 40.7416 48.1631 41.494 47.9639 42.1601 47.5785 C 43.02 48.2856 44.396 48.7462 45.9519 48.7462 C 48.5588 48.7462 50.672 47.4593 50.672 45.8719 C 50.6716 45.767 50.6619 45.6623 50.643 45.5591 C 51.966 45.1274 52.898 44.1003 52.898 42.9002 Z"/>
    <path fill="none" stroke="#000000" stroke-miterlimit="10" stroke-width="2" stroke-linecap="round" stroke-linejoin="round" d="M 6 53 C 9.091 53.5912 9.9469 49.477 14 49 C 17.6107 48.5751 18.0565 51.411 20.6667 52.5456 C 21.6964 52.9932 22.6139 52.9981 23 53 C 26.6617 53.0176 27.9951 49.4046 31 49 C 32.3292 48.821 34.3015 49.2273 37 52"/>
</svg>
