<svg width="16" height="16" viewBox="0 0 16 16" xmlns="http://www.w3.org/2000/svg">
    <defs/>
    <path id="path2" fill="none" stroke="#000000" stroke-miterlimit="10" stroke-width="1.39508116" stroke-linecap="round" stroke-linejoin="round" transform="matrix(1 0 0 1 0.61016949 0.40677966)" d="M 3.8145914 8.9385074 L 0.68636641 11.820128 C 0.58874013 11.647163 0.52737504 11.418466 0.52737504 11.173006 L 0.52737504 3.7785121"/>
    <path id="path4" fill="none" stroke="#000000" stroke-miterlimit="10" stroke-width="1.39508116" stroke-linecap="round" stroke-linejoin="round" transform="matrix(1 0 0 1 0.61016949 0.40677966)" d="M 14.457251 3.7645655 L 14.457251 11.173006 C 14.457251 11.412887 14.401461 11.633244 14.303838 11.806182 L 11.147274 8.915886"/>
    <path id="line6" fill="none" stroke="#000000" stroke-miterlimit="10" stroke-width="1.39508116" stroke-linecap="round" stroke-linejoin="round" transform="matrix(1 0 0 1 0.61016949 0.40677966)" d="M 0.70472015 3.6639546 L 0.68731478 3.6530763"/>
    <path id="path8" fill="none" stroke="#000000" stroke-miterlimit="10" stroke-width="1.39508116" stroke-linecap="round" stroke-linejoin="round" transform="matrix(1 0 0 1 0.61016949 0.40677966)" d="M 4.9679762 7.8760266 L 6.2148033 9.0280168 C 6.281747 9.0893819 6.3486908 9.142379 6.4156345 9.1870081 C 7.0934677 9.6890862 7.8828181 9.6890862 8.557862 9.1842188 C 8.6220164 9.1395897 8.6889601 9.0838032 8.7503252 9.0280168 L 10.00552 7.870448"/>
    <path id="path12" fill="none" stroke="#000000" stroke-miterlimit="10" stroke-width="1.39508116" stroke-linecap="round" stroke-linejoin="round" transform="matrix(1 0 0 1 0.61016949 0.40677966)" d="M 10.86028 8.6531318 L 14.303838 11.806182 C 14.186687 12.02096 14.005381 12.160426 13.804549 12.160426 L 1.1800765 12.160426 C 0.9848239 12.160426 0.80630727 12.029328 0.68636641 11.820128 L 4.0553378 8.7167284"/>
    <path id="path16" fill="none" stroke="#000000" stroke-miterlimit="10" stroke-width="1.39508116" stroke-linecap="round" stroke-linejoin="round" transform="matrix(1 0 0 1 0.61016949 0.40677966)" d="M 14.457251 3.7645655 L 10.005492 7.870448 L 8.7502973 9.0280168 C 8.6889322 9.0838032 8.6219885 9.1395897 8.5578341 9.1842188 C 7.8828181 9.6890862 7.0934398 9.6890862 6.4156066 9.1870081 C 6.3486629 9.142379 6.2817191 9.0893819 6.2147754 9.0280168 L 4.9679483 7.8760266 L 0.52734715 3.7785121 C 0.53850445 3.7617761 0.55245105 3.7422511 0.56639765 3.7227261 C 0.6835492 3.5553663 0.84254057 3.4549507 1.0154786 3.4549507 L 13.980249 3.4549507 C 14.144819 3.4549507 14.30381 3.5525767 14.418145 3.7087791 C 14.432145 3.7255151 14.446095 3.7450401 14.457255 3.7645651 Z"/>
</svg>
