<svg width="16" height="16" viewBox="0 0 16 16" xmlns="http://www.w3.org/2000/svg">
    <defs/>
    <path id="path2413" fill="#000000" stroke="none" transform="matrix(0.07875 0 0 0.07875 0.17937861 0.14904852)" d="M 100 0 C 44.8 0 0 44.8 0 100 C 0 155.2 44.8 200 100 200 C 155.2 200 200 155.2 200 100 C 200 44.8 155.2 0 100 0 Z M 100 12.812 C 148.13 12.812 187.19 51.87 187.19 100 C 187.19 148.13 148.13 187.19 100 187.19 C 51.87 187.19 12.812 148.13 12.812 100 C 12.812 51.87 51.87 12.812 100 12.812 Z M 101.47 34.062 C 96.02 34.092 90.817 34.799 86.188 36.125 C 81.489 37.471 77.062 39.609 73.312 42.344 C 70.074 44.706 66.979 47.735 64.625 50.875 C 60.466 56.424 58.164 62.526 57.562 69.562 C 57.522 70.03 57.492 70.43 57.5 70.438 C 57.516 70.454 79.202 73.125 79.312 73.125 C 79.365 73.125 79.425 72.891 79.594 72.188 C 81.535 64.103 85.08 58.667 90.562 55.375 C 94.882 52.781 100.37 51.763 106.34 52.406 C 109.08 52.701 111.55 53.366 113.72 54.406 C 116.43 55.707 118.9 57.767 120.66 60.219 C 122.2 62.375 123.12 64.803 123.41 67.531 C 123.49 68.29 123.46 70.011 123.38 70.75 C 123.15 72.576 122.68 74.128 121.88 75.719 C 121.07 77.316 120.4 78.233 119.12 79.531 C 117.09 81.608 113.94 84.36 108.34 88.938 C 104.74 91.882 102.3 94.094 100.22 96.281 C 95.277 101.46 93.029 105.35 91.656 111 C 90.751 114.72 90.4 118.55 90.5 124.19 C 90.525 125.59 90.562 126.92 90.562 127.16 L 90.562 127.59 L 112.16 127.59 L 112.19 125.19 C 112.22 121.92 112.4 119.82 112.75 117.78 C 113.32 114.51 114.18 112.78 116.69 109.97 C 118.29 108.17 120.39 106.21 123.62 103.5 C 128.39 99.509 131.73 96.51 134.88 93.375 C 139.79 88.468 142.34 85.115 144.16 81.188 C 145.59 78.096 146.38 75.022 146.62 71.656 C 146.68 70.84 146.69 68.626 146.62 67.688 C 146.17 60.645 143.52 54.435 138.47 48.656 C 137.67 47.747 135.69 45.769 134.75 44.938 C 129.79 40.544 124.06 37.585 117.19 35.844 C 113 34.782 108.96 34.244 103.84 34.094 C 103.06 34.071 102.25 34.058 101.47 34.062 Z M 90.562 137.662 L 90.562 159.662 L 112.56 159.662 L 112.56 137.662 Z"/>
</svg>
