<svg width="16" height="16" viewBox="0 0 16 16" xmlns="http://www.w3.org/2000/svg">
    <defs/>
    <g id="g17" transform="matrix(0.5180123 0 0 0.5180123 0.2188727 0.12047707)">
        <path id="path1" fill="#000000" stroke="none" d="M 26.311 23.224 C 25.499 21.808 24.239002 20.849 22.909 20.488 C 21.858 20.201 20.768 20.289 19.825 20.822 L 17.02 15.918 C 18.756 12.455 22.653 4.691 23.352 3.467 C 24.258 1.884 22.637 0 22.637 0 L 15.277001 12.872 L 7.919 0 C 7.919 0 6.299 1.884 7.204 3.466 C 7.904 4.691 11.802001 12.454 13.536 15.917 L 10.732 20.821 C 9.789 20.288 8.697 20.2 7.648 20.487 C 6.316 20.848 5.057 21.807 4.245 23.223 C 2.787 25.769999 3.344 28.825 5.484 30.05 C 6.433 30.595001 7.532 30.682 8.591 30.395 C 9.92 30.032 11.182001 29.073002 11.993 27.659998 C 12.348 27.036 12.583 26.383 12.703 25.733997 L 12.703 25.735003 C 12.704 25.73 12.704 25.725 12.709 25.72 C 12.716 25.665998 12.726 25.612 12.731 25.552998 C 13.332999 21.514 14.471001 19.451 15.276 18.449 C 16.083 19.451 17.222 21.513 17.823 25.552998 C 17.829 25.612 17.839 25.665998 17.844 25.72 C 17.848 25.725 17.848 25.73 17.85 25.735003 L 17.85 25.733997 C 17.971 26.382 18.205 27.036 18.559 27.659998 C 19.371 29.073002 20.633 30.032 21.963001 30.395 C 23.021997 30.682 24.121 30.595001 25.072 30.05 C 27.213 28.825 27.768 25.771 26.311 23.224 Z M 9.911 26.468 C 9.451 27.271 8.722 27.876 7.963 28.083 C 7.6249995 28.175 7.129 28.231 6.674 27.97 C 5.704 27.415 5.5450006 25.784 6.328 24.414001 C 6.796 23.602 7.505 23.011 8.278 22.8 C 8.613 22.709 9.109 22.653997 9.566 22.913 C 10.537 23.469997 10.695 25.097 9.911 26.468 Z M 23.881 27.97 C 23.425999 28.232 22.932 28.175 22.594 28.083 C 21.834 27.876 21.106 27.271 20.645 26.468 C 19.862 25.097 20.02 23.469997 20.991 22.913 C 21.448 22.653 21.944 22.709 22.28 22.8 C 23.051 23.011 23.762 23.602 24.227001 24.414001 C 25.01 25.784 24.852 27.415 23.881 27.97 Z"/>
    </g>
</svg>
