<svg width="16" height="16" viewBox="0 0 16 16" xmlns="http://www.w3.org/2000/svg">
    <defs/>
    <path id="path2" fill="none" stroke="#000000" stroke-miterlimit="10" stroke-width="2" stroke-linecap="round" stroke-linejoin="round" transform="matrix(0.29990967 0 0 0.29990967 -2.6846471 -2.760702)" d="M 22.6699 40.5591 L 11.4549 50.89 C 11.1049 50.2699 10.8849 49.45 10.8849 48.57 L 10.8849 22.06"/>
    <path id="path4" fill="none" stroke="#000000" stroke-miterlimit="10" stroke-width="2" stroke-linecap="round" stroke-linejoin="round" transform="matrix(0.29990967 0 0 0.29990967 -2.6846471 -2.760702)" d="M 60.8249 22.01 L 60.8249 48.57 C 60.8249 49.43 60.6249 50.22 60.2749 50.84 L 48.9583 40.478"/>
    <path id="line6" fill="none" stroke="#000000" stroke-miterlimit="10" stroke-width="2" stroke-linecap="round" stroke-linejoin="round" transform="matrix(0.29990967 0 0 0.29990967 -2.6846471 -2.760702)" d="M 11.5207 21.6493 L 11.4583 21.6103"/>
    <path id="path8" fill="none" stroke="#000000" stroke-miterlimit="10" stroke-width="2" stroke-linecap="round" stroke-linejoin="round" transform="matrix(0.29990967 0 0 0.29990967 -2.6846471 -2.760702)" d="M 26.8049 36.75 L 31.2749 40.88 C 31.5149 41.1 31.7549 41.29 31.9949 41.45 C 34.425 43.25 37.2549 43.25 39.675 41.44 C 39.905 41.28 40.145 41.08 40.365 40.88 L 44.865 36.73"/>
    <path id="path12" fill="none" stroke="#000000" stroke-miterlimit="10" stroke-width="2" stroke-linecap="round" stroke-linejoin="round" transform="matrix(0.29990967 0 0 0.29990967 -2.6846471 -2.760702)" d="M 47.9294 39.536 L 60.2749 50.84 C 59.8549 51.61 59.2049 52.11 58.4849 52.11 L 13.2249 52.11 C 12.5249 52.11 11.8849 51.64 11.4549 50.89 L 23.533 39.764"/>
    <path id="path16" fill="none" stroke="#000000" stroke-miterlimit="10" stroke-width="2" stroke-linecap="round" stroke-linejoin="round" transform="matrix(0.29990967 0 0 0.29990967 -2.6846471 -2.760702)" d="M 60.8249 22.01 L 44.8649 36.73 L 40.3649 40.88 C 40.1449 41.08 39.9049 41.28 39.6749 41.44 C 37.2549 43.25 34.4249 43.25 31.9948 41.45 C 31.7548 41.29 31.5148 41.1 31.2748 40.88 L 26.8048 36.75 L 10.8848 22.06 C 10.9248 22 10.9748 21.93 11.0248 21.86 C 11.4448 21.26 12.0148 20.9 12.6348 20.9 L 59.1148 20.9 C 59.7048 20.9 60.2748 21.25 60.6847 21.81 C 60.7349 21.87 60.7849 21.94 60.8249 22.01 Z"/>
</svg>
