<svg width="64" height="64" viewBox="0 0 64 64" xmlns="http://www.w3.org/2000/svg">
    <defs/>
    <path id="rect1390" fill="none" stroke="#000000" transform="matrix(3.9457319 0 0 3.9457319 -0.6172314204383782 1.951441371939079)" d="M 11.21477 4.5093619 L 11.214769 2.6988149 C 11.214769 2.4907046 11.04788 2.3218618 10.839769 2.3218618 L 4.2772693 2.3218618 L 4.2772693 2.3218618 C 4.0691589 2.3218618 3.9022693 2.4907046 3.9022693 2.6988149 L 3.9022693 11.735924 C 3.9022693 11.944035 4.0691589 12.110924 4.2772693 12.110924 L 10.839769 12.110924 C 11.04788 12.110924 11.214769 11.944035 11.214769 11.735924 L 11.214769 4.6910024 L 11.21477 4.5093619"/>
    <path id="rect1390-3" fill="#000000" stroke="#000000" stroke-width="0.81556123" transform="matrix(3.6609085325667583 1.47192016828109 0 3.9457319 -0.6172314204383782 1.951441371939079)" d="M 4.3604342 1.1980633 L 8.6749962 1.1980633 C 8.8752636 1.1980633 9.0376124 1.3604121 9.0376124 1.5606795 L 9.0376124 10.284799 C 9.0376124 10.485067 8.8752636 10.647416 8.6749962 10.647416 L 4.3604342 10.647416 C 4.1601668 10.647416 3.997818 10.485067 3.997818 10.284799 L 3.997818 1.5606795 C 3.997818 1.3604121 4.1601668 1.1980633 4.3604342 1.1980633 Z"/>
    <path id="path5137" fill="none" stroke="#000000" stroke-linecap="round" transform="matrix(3.9457319 0 0 3.9457319 131.35651027184198 47.1732126417836)" d="M -23.322833 -4.2487636 L -19.680729 -4.2487636"/>
    <path id="path5421" fill="none" stroke="#000000" stroke-linecap="round" transform="matrix(3.9457319 0 0 3.9457319 83.2342180273617 5.90669822928836)" d="M -7.4846915 6.2097562 L -8.6207607 4.906618"/>
    <path id="path5421-6" fill="none" stroke="#000000" stroke-linecap="round" transform="matrix(3.9457319 0 0 3.9457319 83.2342180273617 5.90669822928836)" d="M -8.6207607 7.5128944 L -7.4846915 6.2097562"/>
</svg>

