<svg width="16" height="16" viewBox="0 0 16 16" xmlns="http://www.w3.org/2000/svg">
    <defs/>
    <path id="path1406" fill="#000000" stroke="none" transform="matrix(0.02927969 0 0 0.02927969 0.45571786 0.52916695)" d="M 469.338 369.777 L 469.338 341.199 C 469.338 280.024 419.572 230.266 358.405 230.266 L 298.672 230.266 L 298.672 153.466 L 333.556 153.466 C 343.224 153.466 351.954 148.124 356.349 139.523 C 360.752 130.921 359.976 120.715 354.318 112.882 L 282.79 13.852 C 276.509 5.148 266.747 0.156 256.012 0.156 L 256.003 0.156 C 245.268 0.156 235.497 5.148 229.208 13.852 L 157.7 112.881 C 152.034 120.715 151.257 130.92 155.652 139.522 C 160.055 148.124 168.785 153.465 178.453 153.465 L 221.871 153.465 L 221.871 230.265 L 153.604 230.265 C 92.437 230.265 42.671 280.023 42.671 341.198 L 42.671 369.802 C 17.097 382.32 0.926 406.743 0.038 434.792 C -1.157 472.595 25.706 504.561 63.91 510.807 C 86.489 514.51 109.307 508.23 126.519 493.604 C 143.731 478.978 153.604 457.636 153.604 435.065 C 153.604 406.717 137.775 382.679 110.937 369.776 L 110.937 341.198 C 110.937 317.672 130.077 298.531 153.604 298.531 L 221.871 298.531 L 221.871 369.801 C 196.297 382.319 180.126 406.742 179.238 434.791 C 178.043 472.594 204.906 504.56 243.11 510.806 C 265.689 514.509 288.507 508.229 305.719 493.603 C 322.931 478.977 332.804 457.635 332.804 435.064 C 332.804 406.716 316.975 382.678 290.137 369.775 L 290.137 298.53 L 358.404 298.53 C 381.93 298.53 401.071 317.67 401.071 341.197 L 401.071 369.801 C 375.497 382.319 359.326 406.742 358.438 434.791 C 357.243 472.594 384.106 504.56 422.31 510.806 C 426.551 511.506 430.809 511.847 435.033 511.847 C 453.277 511.847 470.941 505.481 484.919 493.603 C 502.131 478.977 512.004 457.635 512.004 435.064 C 512.004 406.718 496.175 382.679 469.338 369.777 Z"/>
</svg>
