<svg width="16" height="16" viewBox="0 0 16 16" xmlns="http://www.w3.org/2000/svg">
    <defs/>
    <path id="path6" fill="#202020" stroke="none" d="M 0.58218666 5.2861253 C 0.74915334113 5.17198146681 0.95462896995 5.12884969351 1.15340042496 5.16622075095 C 1.35217187998 5.20359180838 1.52795250308 5.318403639 1.6420633 5.4853929 L 2.2713808 6.4059856 C 3.03925120881 3.37021057374 5.7603677157 1.23600364819 8.8916699 1.2136071 C 12.59158 1.2136071 15.500013 4.2727613 15.500013 7.970384 C 15.50215692944 10.68523227081 13.86787249367 13.13375850312 11.359896456 14.17321120739 C 8.85192041832 15.21266391166 5.96469655769 14.63811651946 4.0457209 12.717716 C 3.85289431555 12.52507325667 3.77755144277 12.24415870562 3.84809680806 11.98087811449 C 3.91864217335 11.71759752336 4.12434762547 11.5119891567 4.38766148996 11.44156808743 C 4.65097535445 11.37114701815 4.93185430672 11.44662249523 5.124406 11.63954 C 6.6072876395 13.12356633659 8.83845971446 13.56747306492 10.77644459929 12.76405118907 C 12.71442948412 11.96062931322 13.97708006172 10.0683038839 13.97501 7.970384 C 13.97501 5.1135462 11.750541 2.7386094 8.8916699 2.7386094 C 6.44360560875 2.7605996599 4.32293019282 4.44179264249 3.743008 6.820278 L 4.8394847 5.8117434 C 5.1495892232 5.52681404698 5.63193849014 5.54714263333 5.91696926844 5.85715393464 C 6.20200004675 6.16716523594 6.18182924624 6.6495211269 5.8719112 6.9346533 L 3.3970867 9.2099564 C 3.3937867 9.2132364 3.3894567 9.2150564 3.3861567 9.2183364 C 3.3691277 9.2335864 3.3498107 9.2462964 3.3315107 9.2597614 C 3.31171493708 9.27526477275 3.29109731931 9.28968906017 3.2697477 9.3029714 C 3.2504317 9.3146704 3.2293357 9.3238114 3.2087477 9.3334714 C 3.18565133504 9.34507926731 3.16198390405 9.35551420399 3.1378357 9.3647364 C 3.1175027 9.3723864 3.0964057 9.3774464 3.0753107 9.3827814 C 3.04828759595 9.39019320571 3.02088190635 9.39613195081 2.9932147 9.4005714 C 2.9845747 9.4021214 2.9766937 9.4048514 2.9677977 9.4061214 C 2.9548347 9.4076714 2.9418727 9.4056125 2.9286557 9.4066295 C 2.9126437 9.4076295 2.8971397 9.4109095 2.8811257 9.4109095 C 2.8633347 9.4109095 2.8452887 9.4091795 2.8272417 9.4078095 L 2.8069087 9.4068095 L 2.7942007 9.4060766 C 2.7789507 9.4043466 2.7642087 9.3984266 2.7489587 9.3959066 C 2.71564944733 9.3906399945 2.68271019226 9.38325332053 2.6503417 9.3737916 C 2.6292457 9.3668716 2.6096747 9.3575216 2.5895957 9.3491366 C 2.56227721269 9.33837087241 2.53562668393 9.3259817776 2.5097867 9.3120356 C 2.48941330165 9.30024519446 2.46964783582 9.2874342382 2.4505657 9.2736516 C 2.42739201003 9.25802430654 2.40515668313 9.24104871248 2.3839747 9.2228126 C 2.36626269452 9.207543827 2.3492985921 9.19142838022 2.3331417 9.1745226 C 2.31290885903 9.15343056102 2.29390009386 9.13119752091 2.2762087 9.1079326 C 2.2685886 9.0977738 2.258672 9.0893794 2.251555 9.0789639 L 0.38291963 6.3461596 C 0.14537349947 5.99843479381 0.23457321507 5.52399233688 0.58218654 5.2862831 Z"/>
</svg>
