<svg width="16" height="16" viewBox="0 0 16 16" xmlns="http://www.w3.org/2000/svg">
    <defs/>
    <path id="path4583" fill="#000000" stroke="none" d="M 8.400121 14.001372 C 8.269379 13.942672 8.093014 13.753199 8.051202 13.626513 C 7.959432 13.34845 8.071342 13.024305 8.316463 12.858236 L 8.428591 12.782266 L 9.570442 12.763116 C 10.823234 12.742106 10.935648 12.727796 11.417732 12.527999 C 12.027877 12.275134 12.590861 11.745985 12.893056 11.141337 C 13.244977 10.437209 13.297382 9.6146311 13.038096 8.8647338 C 12.715726 7.9323863 11.868068 7.1908276 10.895158 6.9900211 C 10.637427 6.9368271 10.416159 6.9334401 7.174414 6.9330651 L 3.727699 6.9327444 L 4.828517 8.0157338 C 5.519816 8.695837 5.953161 9.1451949 5.993381 9.2236387 C 6.137841 9.5054003 6.037921 9.8766254 5.769888 10.054007 C 5.603167 10.164336 5.349041 10.183909 5.163302 10.100726 C 5.063812 10.056172 4.594189 9.6092868 3.319056 8.3457633 C 2.378137 7.4134109 1.585713 6.6080875 1.558112 6.5561572 C 1.489282 6.4266522 1.489602 6.1277196 1.558753 5.9890325 C 1.634463 5.8370774 4.983159 2.5366152 5.119354 2.4797106 C 5.357258 2.3803076 5.690677 2.4450156 5.856481 2.6227658 C 6.008583 2.7858305 6.06475 3.1150098 5.976332 3.3251972 C 5.952532 3.3817329 5.471067 3.8844483 4.834928 4.5169317 L 3.734658 5.6108831 L 7.29947 5.6276891 C 10.797314 5.6441741 10.86942 5.6457131 11.137769 5.7090511 C 11.974616 5.906567 12.618517 6.2514101 13.204692 6.8159979 C 13.999967 7.5819823 14.438001 8.5474455 14.486073 9.6402488 C 14.577323 11.714698 13.241173 13.462095 11.18335 13.959506 C 10.949711 14.015986 10.809036 14.022976 9.709555 14.032766 C 8.720776 14.041566 8.476542 14.035666 8.400173 14.001436 Z"/>
</svg>

